<svg width="111" height="38" viewBox="0 0 111 38" fill="none" xmlns="http://www.w3.org/2000/svg">
<path d="M3.402 28.274H4.606C4.802 27.1913 5.31067 26.3 6.132 25.6C7.028 24.8347 8.13867 24.452 9.464 24.452C10.9667 24.452 12.194 24.9093 13.146 25.824C13.6127 26.2627 13.9767 26.79 14.238 27.406C14.5087 28.0127 14.644 28.652 14.644 29.324C14.644 29.9867 14.5087 30.626 14.238 31.242C13.9767 31.858 13.6127 32.39 13.146 32.838C12.194 33.7527 10.9667 34.21 9.464 34.21C8.12 34.21 7 33.8087 6.104 33.006C5.24533 32.2313 4.746 31.2793 4.606 30.15H3.402V34H0.98V24.662H3.402V28.274ZM9.548 26.804C8.82 26.804 8.19933 27.0607 7.686 27.574C7.19133 28.0687 6.944 28.6567 6.944 29.338C6.944 30.0473 7.20067 30.6447 7.714 31.13C8.20867 31.6153 8.81533 31.858 9.534 31.858C10.2247 31.858 10.8267 31.6107 11.34 31.116C11.8533 30.6027 12.11 29.996 12.11 29.296C12.11 28.6147 11.8533 28.0267 11.34 27.532C10.8453 27.0467 10.248 26.804 9.548 26.804ZM17.0931 24.662H24.2891V34H21.8531V26.706H19.5011V30.108C19.5011 31.6013 19.1745 32.6747 18.5211 33.328C17.9705 33.86 17.2425 34.126 16.3371 34.126C15.9638 34.126 15.5951 34.084 15.2311 34V31.76C15.4271 31.8253 15.6138 31.858 15.7911 31.858C16.1271 31.858 16.3978 31.7647 16.6031 31.578C16.9298 31.2793 17.0931 30.6913 17.0931 29.814V24.662ZM26.2456 24.662H28.6816V30.542L32.1816 24.662H34.6596V34H32.2236V28.12L28.7236 34H26.2456V24.662ZM36.6226 24.662H39.0586V30.542L42.5586 24.662H45.0366V34H42.6006V28.12L39.1006 34H36.6226V24.662ZM54.1591 34H50.2671V24.662H53.8791C54.8031 24.662 55.4844 24.9047 55.9231 25.39C56.3058 25.81 56.4971 26.3933 56.4971 27.14C56.4971 27.5507 56.4084 27.9333 56.2311 28.288C56.0444 28.6333 55.7924 28.876 55.4751 29.016C55.9978 29.072 56.4224 29.2587 56.7491 29.576C57.1691 29.9773 57.3791 30.5467 57.3791 31.284C57.3791 32.0493 57.1504 32.6607 56.6931 33.118C56.1238 33.706 55.2791 34 54.1591 34ZM52.6891 26.524V28.344H53.1371C53.5664 28.344 53.8744 28.246 54.0611 28.05C54.2104 27.9007 54.2851 27.6953 54.2851 27.434C54.2851 27.182 54.2104 26.972 54.0611 26.804C53.8744 26.6173 53.5664 26.524 53.1371 26.524H52.6891ZM52.6891 30.15V32.11H53.2351C54.0191 32.11 54.5184 31.984 54.7331 31.732C54.8638 31.5827 54.9291 31.382 54.9291 31.13C54.9291 30.8407 54.8498 30.6167 54.6911 30.458C54.4858 30.2527 53.9864 30.15 53.1931 30.15H52.6891ZM68.8054 29.338C68.8054 30.7193 68.3154 31.8813 67.3354 32.824C66.3647 33.748 65.1374 34.21 63.6534 34.21C62.1694 34.21 60.9421 33.748 59.9714 32.824C58.9914 31.8813 58.5014 30.7193 58.5014 29.338C58.5014 28.694 58.6227 28.064 58.8654 27.448C59.1174 26.832 59.4861 26.2953 59.9714 25.838C60.9421 24.914 62.1694 24.452 63.6534 24.452C65.1374 24.452 66.3647 24.914 67.3354 25.838C67.8207 26.2953 68.1847 26.832 68.4274 27.448C68.6794 28.064 68.8054 28.694 68.8054 29.338ZM63.6534 26.804C62.8881 26.804 62.2581 27.0513 61.7634 27.546C61.2687 28.0313 61.0214 28.6427 61.0214 29.38C61.0214 30.0613 61.2687 30.64 61.7634 31.116C62.2767 31.6107 62.9067 31.858 63.6534 31.858C64.4187 31.858 65.0441 31.6153 65.5294 31.13C66.0334 30.626 66.2854 30.0287 66.2854 29.338C66.2854 28.6287 66.0334 28.0313 65.5294 27.546C65.0067 27.0513 64.3814 26.804 63.6534 26.804ZM74.2991 30.906H72.7731V34H70.3511V24.662H74.2151C75.2138 24.662 76.0024 24.942 76.5811 25.502C77.1598 26.062 77.4491 26.818 77.4491 27.77C77.4491 28.778 77.1738 29.5527 76.6231 30.094C76.0724 30.6353 75.2978 30.906 74.2991 30.906ZM72.7731 26.622V28.946H73.5851C74.0518 28.946 74.3924 28.848 74.6071 28.652C74.8124 28.4747 74.9151 28.19 74.9151 27.798C74.9151 27.4247 74.8218 27.1447 74.6351 26.958C74.4204 26.734 74.0751 26.622 73.5991 26.622H72.7731ZM80.3645 34H77.9565L79.5385 24.662H81.9325L83.8225 29.646L85.8245 24.662H88.2465L89.6465 34H87.2245L86.5385 28.624L84.2845 34H83.3185L81.1625 28.624L80.3645 34ZM97.459 34L96.885 32.432H93.497L92.867 34H90.305L93.889 24.662H96.535L100.049 34H97.459ZM94.169 30.584H96.241L95.191 27.56L94.169 30.584ZM103.548 24.662V28.148H107.048V24.662H109.484V34H107.048V30.22H103.548V34H101.126V24.662H103.548Z" fill="white"/>
<path d="M0.98 4.662H3.416V10.542L6.916 4.662H9.394V14H6.958V8.12L3.458 14H0.98V4.662ZM13.779 4.662V8.148H17.279V4.662H19.715V14H17.279V10.22H13.779V14H11.357V4.662H13.779ZM27.1952 6.72H25.2072V14H22.7852V6.72H20.7972V4.662H27.1952V6.72ZM33.5751 4.662V6.72H30.6911V8.274H33.4211V10.332H30.6911V11.942H33.5751V14H28.2691V4.662H33.5751ZM37.5407 4.662V8.148H41.0407V4.662H43.4767V14H41.0407V10.22H37.5407V14H35.1187V4.662H37.5407ZM52.1469 10.878V13.748C51.2976 14.056 50.5976 14.21 50.0469 14.21C48.5909 14.21 47.3869 13.7433 46.4349 12.81C45.9869 12.362 45.6369 11.8393 45.3849 11.242C45.1423 10.6353 45.0209 10.024 45.0209 9.408C45.0209 8.764 45.1469 8.13867 45.3989 7.532C45.6603 6.92533 46.0056 6.40267 46.4349 5.964C47.3869 4.99333 48.5629 4.508 49.9629 4.508C50.6443 4.508 51.3723 4.66667 52.1469 4.984V7.882C51.5963 7.20067 50.8916 6.86 50.0329 6.86C49.3703 6.86 48.8103 7.06533 48.3529 7.476C47.8116 7.98 47.5409 8.61933 47.5409 9.394C47.5409 10.1313 47.7929 10.738 48.2969 11.214C48.7543 11.6433 49.3329 11.858 50.0329 11.858C50.8449 11.858 51.5496 11.5313 52.1469 10.878ZM53.6851 4.662H56.1211V10.542L59.6211 4.662H62.0991V14H59.6631V8.12L56.1631 14H53.6851V4.662ZM67.954 14H64.062V4.662H67.674C68.598 4.662 69.2794 4.90467 69.718 5.39C70.1007 5.81 70.292 6.39333 70.292 7.14C70.292 7.55067 70.2034 7.93333 70.026 8.288C69.8394 8.63333 69.5874 8.876 69.27 9.016C69.7927 9.072 70.2174 9.25867 70.544 9.576C70.964 9.97733 71.174 10.5467 71.174 11.284C71.174 12.0493 70.9454 12.6607 70.488 13.118C69.9187 13.706 69.074 14 67.954 14ZM66.484 6.524V8.344H66.932C67.3614 8.344 67.6694 8.246 67.856 8.05C68.0054 7.90067 68.08 7.69533 68.08 7.434C68.08 7.182 68.0054 6.972 67.856 6.804C67.6694 6.61733 67.3614 6.524 66.932 6.524H66.484ZM66.484 10.15V12.11H67.03C67.814 12.11 68.3134 11.984 68.528 11.732C68.6587 11.5827 68.724 11.382 68.724 11.13C68.724 10.8407 68.6447 10.6167 68.486 10.458C68.2807 10.2527 67.7814 10.15 66.988 10.15H66.484Z" fill="white"/>
</svg>
