<svg width="46" height="46" viewBox="0 0 46 46" fill="none" xmlns="http://www.w3.org/2000/svg">
<g clip-path="url(#clip0_1_454)">
<path d="M22.9997 46.0014C35.7021 46.0014 45.9995 35.7041 45.9995 23.0017C45.9995 10.2993 35.7021 0.00195312 22.9997 0.00195312C10.2973 0.00195312 0 10.2993 0 23.0017C0 35.7041 10.2973 46.0014 22.9997 46.0014Z" fill="#41B4E6"/>
<path d="M46 23.0001C46 22.4397 45.9789 21.8844 45.9395 21.3339L36.4072 11.8018L9.59277 22.3493L19.8521 32.6088L19.9867 33.0932L20.1609 32.9176L20.1616 32.9183L19.9867 33.0932L31.3355 44.442C39.9174 41.1034 46 32.7626 46 23.0001Z" fill="#0091C8"/>
<path d="M20.7664 26.3511L31.1605 34.1986L36.4073 11.8018L9.59277 22.3493L17.7521 25.0519L32.6431 15.0634L20.7664 26.3511Z" fill="white"/>
<path d="M17.7521 25.0519L19.9868 33.0933L20.7663 26.3511L32.643 15.0635L17.7521 25.0519Z" fill="#D2D2D7"/>
<path d="M24.1444 28.9016L19.9867 33.0933L20.7663 26.3511L24.1444 28.9016Z" fill="#B9B9BE"/>
</g>
<defs>
<clipPath id="clip0_1_454">
<rect width="46" height="46" fill="white"/>
</clipPath>
</defs>
</svg>
